<svg width="200" height="200" viewBox="0 0 200 200" xmlns="http://www.w3.org/2000/svg">
    <!-- Gradiente da chama -->
    <defs>
        <linearGradient id="flameGradient" x1="0" y1="0" x2="1" y2="1">
            <stop offset="0%" stop-color="#502060" />
            <stop offset="100%" stop-color="#e0582f" />
        </linearGradient>
    </defs>

    <!-- Chama estilizada -->
    <path
        d="M100,20
           C120,40 130,60 120,80
           C140,70 150,90 140,120
           C130,150 110,160 100,180
           C90,160 70,150 60,120
           C50,90 60,70 80,80
           C70,60 80,40 100,20Z"
        fill="url(#flameGradient)" />

    <!-- Silhueta do detetive -->
    <path
        d="M100,95
           m-25,0
           q5,-15 25,-15
           q20,0 25,15
           q0,5 -5,10
           q10,0 10,15
           q0,20 -30,20
           q-30,0 -30,-20
           q0,-15 10,-15
           q-5,-5 -5,-10Z"
        fill="#111" />

    <!-- Chapéu -->
    <path
        d="M75,85
           q25,-15 50,0
           q-5,-15 -10,-20
           q-25,-10 -30,0
           q-5,5 -10,20Z"
        fill="#111" />

    <!-- Lupa -->
    <circle cx="130" cy="110" r="10" stroke="#f7b733" stroke-width="4" fill="none" />
    <line x1="137" y1="117" x2="145" y2="125" stroke="#f7b733" stroke-width="4"
        stroke-linecap="round" />
</svg>